<?xml version="1.0" encoding="utf-8"?>
<!-- Generator: Adobe Illustrator 16.0.3, SVG Export Plug-In . SVG Version: 6.00 Build 0)  -->
<!DOCTYPE svg PUBLIC "-//W3C//DTD SVG 1.1//EN" "http://www.w3.org/Graphics/SVG/1.1/DTD/svg11.dtd">
<svg version="1.1" id="Layer_1" xmlns="http://www.w3.org/2000/svg" xmlns:xlink="http://www.w3.org/1999/xlink" x="0px" y="0px"
	 width="385px" height="68.667px" viewBox="0 0 385 68.667" enable-background="new 0 0 385 68.667" xml:space="preserve">
<g id="logofooter">
	<g>
		<path fill="#FFFFFF" d="M23.535,52.605c0.394,0.121,0.786,0.203,1.181,0.24c0.393,0.034,0.787,0.055,1.181,0.055
			c0.983,0,1.932-0.135,2.841-0.408c0.911-0.27,1.767-0.657,2.565-1.161c0.8-0.504,1.514-1.119,2.141-1.847
			c0.627-0.726,1.139-1.53,1.532-2.418l7.38,7.418c-0.936,1.33-2.011,2.523-3.229,3.58c-1.217,1.062-2.534,1.957-3.949,2.695
			s-2.903,1.297-4.465,1.68c-1.563,0.383-3.168,0.572-4.816,0.572c-2.779,0-5.395-0.518-7.842-1.549
			c-2.449-1.033-4.59-2.477-6.423-4.318c-1.833-1.847-3.279-4.043-4.336-6.588c-1.059-2.547-1.587-5.345-1.587-8.396
			c0-3.124,0.528-5.979,1.587-8.562c1.057-2.584,2.503-4.785,4.336-6.605c1.833-1.821,3.974-3.237,6.423-4.246
			c2.447-1.008,5.063-1.512,7.842-1.512c1.648,0,3.261,0.198,4.835,0.591c1.574,0.394,3.069,0.959,4.484,1.697
			c1.415,0.738,2.737,1.643,3.967,2.714c1.23,1.07,2.313,2.268,3.248,3.598L23.535,52.605z M28.702,31.827
			c-0.468-0.173-0.93-0.283-1.385-0.334c-0.456-0.048-0.929-0.073-1.421-0.073c-1.378,0-2.676,0.251-3.894,0.756
			c-1.217,0.505-2.276,1.225-3.174,2.16c-0.898,0.935-1.605,2.06-2.122,3.376c-0.518,1.316-0.774,2.799-0.774,4.447
			c0,0.369,0.019,0.789,0.056,1.254c0.036,0.469,0.098,0.942,0.185,1.421c0.085,0.48,0.189,0.941,0.313,1.385
			c0.123,0.443,0.282,0.836,0.479,1.182L28.702,31.827z"/>
		<path fill="#FFFFFF" d="M68.391,62.273H45.361V52.232h23.029c0.688,0,1.279-0.244,1.772-0.737
			c0.491-0.491,0.737-1.082,0.737-1.772c0-0.711-0.246-1.18-0.737-1.4c-0.493-0.221-1.083-0.334-1.772-0.334H57.91
			c-1.747,0-3.384-0.33-4.909-0.996c-1.525-0.664-2.854-1.566-3.985-2.713c-1.132-1.144-2.022-2.478-2.676-4.005
			c-0.652-1.522-0.979-3.16-0.979-4.907c0-1.746,0.326-3.383,0.979-4.908c0.652-1.526,1.544-2.854,2.676-3.985
			c1.131-1.132,2.46-2.025,3.985-2.677c1.525-0.653,3.162-0.979,4.909-0.979h20.409v10.041H57.91c-0.689,0-1.28,0.245-1.771,0.737
			c-0.493,0.492-0.738,1.083-0.738,1.771c0,0.715,0.246,1.323,0.738,1.827s1.083,0.757,1.771,0.757h10.48
			c1.722,0,3.346,0.288,4.872,0.866c1.524,0.578,2.854,1.385,3.986,2.416c1.131,1.035,2.029,2.278,2.694,3.729
			C80.607,46.414,80.94,48,80.94,49.72c0,1.75-0.333,3.379-0.997,4.891c-0.665,1.514-1.563,2.844-2.694,3.986
			c-1.131,1.146-2.461,2.045-3.986,2.696C71.736,61.947,70.112,62.273,68.391,62.273z"/>
		<path fill="#FFFFFF" d="M104.962,62.273c-2.438,0-4.727-0.461-6.865-1.385c-2.141-0.923-4.018-2.189-5.628-3.8
			c-1.612-1.614-2.878-3.489-3.802-5.629c-0.923-2.142-1.383-4.431-1.383-6.864V32.859h-4.909v-10.04h4.909V7.023h10.038v15.795
			H112.6v10.041H97.321v11.736c0,1.059,0.197,2.047,0.591,2.971c0.394,0.922,0.935,1.729,1.624,2.416
			c0.688,0.689,1.501,1.238,2.437,1.643c0.936,0.408,1.931,0.609,2.99,0.609h7.638v10.039H104.962L104.962,62.273z"/>
		<path fill="#FFFFFF" d="M146.234,57.661c-0.812,0.737-1.68,1.433-2.601,2.085c-0.923,0.65-1.89,1.217-2.897,1.695
			c-1.009,0.479-2.048,0.863-3.117,1.145c-1.072,0.283-2.16,0.426-3.268,0.426c-2.437,0-4.725-0.433-6.865-1.293
			c-2.141-0.859-4.017-2.085-5.628-3.671c-1.612-1.587-2.879-3.521-3.802-5.794c-0.922-2.277-1.384-4.831-1.384-7.658v-21.85h10.04
			v21.852c0,1.326,0.202,2.514,0.608,3.559c0.407,1.049,0.953,1.928,1.644,2.641c0.688,0.715,1.495,1.254,2.418,1.625
			c0.921,0.368,1.913,0.553,2.971,0.553c1.034,0,2.012-0.238,2.934-0.719c0.924-0.48,1.729-1.115,2.418-1.9
			c0.688-0.787,1.229-1.681,1.624-2.676c0.393-0.998,0.591-2.023,0.591-3.08V22.746h10.075v39.527h-2.437L146.234,57.661z"/>
		<path fill="#FFFFFF" d="M195.976,62.273h-2.437l-3.911-5.426c-0.959,0.862-1.976,1.668-3.044,2.418
			c-1.071,0.75-2.197,1.401-3.378,1.955c-1.182,0.555-2.394,0.992-3.636,1.313c-1.242,0.316-2.504,0.479-3.782,0.479
			c-2.781,0-5.396-0.523-7.843-1.568s-4.589-2.496-6.423-4.353c-1.833-1.858-3.277-4.062-4.336-6.608s-1.586-5.318-1.586-8.322
			c0-2.978,0.527-5.745,1.586-8.304s2.503-4.772,4.336-6.643c1.834-1.87,3.976-3.334,6.423-4.393
			c2.447-1.057,5.062-1.586,7.843-1.586c0.887,0,1.802,0.074,2.749,0.222c0.948,0.147,1.87,0.387,2.769,0.719
			c0.897,0.332,1.741,0.769,2.528,1.31c0.786,0.541,1.451,1.205,1.992,1.993V7.023h10.148L195.976,62.273L195.976,62.273z
			 M185.826,42.159c0-1.377-0.266-2.713-0.794-4.004c-0.528-1.293-1.25-2.436-2.16-3.432c-0.909-0.998-1.974-1.795-3.189-2.401
			c-1.218-0.602-2.516-0.903-3.895-0.903s-2.678,0.247-3.895,0.737c-1.218,0.494-2.275,1.2-3.173,2.124
			c-0.898,0.924-1.605,2.048-2.122,3.375c-0.518,1.328-0.775,2.832-0.775,4.504c0,1.452,0.259,2.831,0.775,4.133
			c0.517,1.304,1.224,2.448,2.122,3.431c0.896,0.986,1.955,1.762,3.173,2.326c1.217,0.566,2.516,0.852,3.895,0.852
			s2.677-0.303,3.895-0.905c1.217-0.603,2.28-1.401,3.189-2.397c0.91-1,1.632-2.143,2.16-3.435
			C185.562,44.872,185.826,43.537,185.826,42.159z"/>
		<path fill="#FFFFFF" d="M212.005,12.005c0,0.936-0.18,1.809-0.536,2.621c-0.355,0.812-0.842,1.519-1.457,2.123
			c-0.614,0.603-1.336,1.083-2.159,1.438c-0.825,0.357-1.704,0.536-2.64,0.536s-1.813-0.179-2.638-0.536
			c-0.825-0.355-1.54-0.836-2.141-1.438c-0.604-0.604-1.084-1.311-1.44-2.123c-0.355-0.812-0.533-1.685-0.533-2.621
			c0-0.909,0.178-1.776,0.533-2.603c0.356-0.823,0.837-1.536,1.44-2.14c0.601-0.601,1.313-1.081,2.141-1.438
			c0.823-0.356,1.702-0.536,2.638-0.536s1.813,0.18,2.64,0.536c0.823,0.357,1.545,0.837,2.159,1.438
			c0.615,0.604,1.102,1.317,1.457,2.14C211.825,10.229,212.005,11.097,212.005,12.005z M210.271,62.273h-10.149V22.746h10.149
			V62.273z"/>
		<path fill="#FFFFFF" d="M254.011,42.219c0,2.952-0.527,5.7-1.586,8.249c-1.059,2.547-2.497,4.75-4.317,6.607
			c-1.822,1.857-3.956,3.322-6.403,4.39c-2.447,1.071-5.073,1.606-7.88,1.606c-2.78,0-5.395-0.535-7.843-1.606
			c-2.447-1.067-4.589-2.532-6.421-4.39c-1.834-1.857-3.279-4.061-4.338-6.607c-1.057-2.548-1.586-5.296-1.586-8.249
			c0-3,0.529-5.781,1.586-8.34c1.059-2.559,2.504-4.766,4.338-6.625c1.832-1.857,3.974-3.316,6.421-4.374
			c2.448-1.058,5.063-1.586,7.843-1.586c2.807,0,5.433,0.498,7.88,1.495s4.581,2.41,6.403,4.244c1.82,1.833,3.26,4.035,4.317,6.607
			C253.482,36.21,254.011,39.071,254.011,42.219z M243.862,42.219c0-1.623-0.266-3.094-0.794-4.41
			c-0.53-1.314-1.249-2.447-2.159-3.394c-0.909-0.949-1.975-1.674-3.191-2.178c-1.217-0.504-2.516-0.757-3.895-0.757
			s-2.676,0.253-3.895,0.757c-1.217,0.503-2.275,1.229-3.173,2.178c-0.898,0.946-1.604,2.079-2.121,3.394
			c-0.518,1.316-0.775,2.787-0.775,4.41c0,1.527,0.259,2.94,0.775,4.245c0.517,1.303,1.223,2.436,2.121,3.395
			c0.896,0.959,1.956,1.718,3.173,2.271c1.219,0.552,2.516,0.83,3.895,0.83s2.678-0.259,3.895-0.774
			c1.218-0.518,2.282-1.244,3.191-2.177c0.91-0.937,1.629-2.067,2.159-3.397C243.598,45.284,243.862,43.82,243.862,42.219z"/>
		<path fill="#FFFFFF" d="M278.114,62.273l-15.057-39.528h11.478l8.637,24.655l8.599-24.655h11.517l-15.059,39.528H278.114z"/>
		<path fill="#FFFFFF" d="M341.146,62.273h-2.436l-3.911-5.426c-0.961,0.862-1.977,1.668-3.045,2.418
			c-1.07,0.75-2.196,1.401-3.378,1.955c-1.181,0.555-2.395,0.992-3.636,1.313c-1.243,0.316-2.505,0.479-3.782,0.479
			c-2.78,0-5.396-0.468-7.844-1.402c-2.447-0.936-4.589-2.293-6.42-4.076c-1.834-1.783-3.28-3.969-4.339-6.553
			c-1.059-2.582-1.586-5.521-1.586-8.819c0-3.075,0.527-5.898,1.586-8.471c1.059-2.57,2.505-4.779,4.339-6.625
			c1.831-1.845,3.973-3.279,6.42-4.3c2.448-1.021,5.063-1.531,7.844-1.531c1.277,0,2.547,0.159,3.801,0.481
			c1.255,0.319,2.474,0.762,3.654,1.328s2.307,1.229,3.377,1.992c1.069,0.764,2.071,1.587,3.009,2.473l3.911-4.688h2.436V62.273z
			 M330.997,42.159c0-1.377-0.264-2.713-0.793-4.004c-0.528-1.293-1.249-2.436-2.157-3.432c-0.91-0.998-1.976-1.795-3.193-2.401
			c-1.217-0.602-2.517-0.903-3.894-0.903c-1.379,0-2.677,0.233-3.895,0.7c-1.218,0.469-2.276,1.158-3.174,2.068
			c-0.899,0.91-1.605,2.037-2.123,3.377c-0.517,1.34-0.775,2.873-0.775,4.594c0,1.723,0.26,3.253,0.775,4.596
			c0.518,1.341,1.224,2.466,2.123,3.376c0.896,0.91,1.956,1.6,3.174,2.066c1.218,0.466,2.516,0.701,3.895,0.701
			c1.377,0,2.677-0.301,3.894-0.904c1.219-0.604,2.283-1.4,3.193-2.396c0.908-1,1.629-2.144,2.157-3.436
			C330.733,44.872,330.997,43.537,330.997,42.159z"/>
		<path fill="#FFFFFF" d="M377.981,62.273h-32.956l16.646-29.414h-16.646v-10.04h32.956l-16.645,29.415h16.645V62.273z"/>
	</g>
</g>
</svg>
