<?xml version="1.0" encoding="utf-8"?>
<!-- Generator: Adobe Illustrator 16.0.3, SVG Export Plug-In . SVG Version: 6.00 Build 0)  -->
<!DOCTYPE svg PUBLIC "-//W3C//DTD SVG 1.1//EN" "http://www.w3.org/Graphics/SVG/1.1/DTD/svg11.dtd">
<svg version="1.1" id="Layer_1" xmlns="http://www.w3.org/2000/svg" xmlns:xlink="http://www.w3.org/1999/xlink" x="0px" y="0px"
	 width="501.117px" height="116.666px" viewBox="0 0 501.117 116.666" enable-background="new 0 0 501.117 116.666"
	 xml:space="preserve">
<g>
	<g>
		<path fill="#882575" d="M76.129,113.739h-0.772L6.227,6.282h16.047"/>
		<g>
			<line fill="none" x1="38.073" y1="18.566" x2="121.758" y2="18.566"/>
			<polygon fill="#882575" points="38.073,16.452 121.758,18.566 38.073,20.676 			"/>
		</g>
		<g>
			<line fill="none" x1="48.771" y1="40.345" x2="111.061" y2="40.345"/>
			<polygon fill="#882575" points="48.771,38.235 111.061,40.345 48.771,42.462 			"/>
		</g>
		<g>
			<line fill="none" x1="59.795" y1="59.649" x2="100.039" y2="59.649"/>
			<polygon fill="#882575" points="59.795,57.538 100.039,59.649 59.795,61.765 			"/>
		</g>
		<g>
			<line fill="none" x1="70.003" y1="81.42" x2="89.826" y2="81.42"/>
			<polygon fill="#882575" points="70.003,79.308 89.826,81.42 70.003,83.537 			"/>
		</g>
	</g>
</g>
<g>
	<path fill="#0A4D83" d="M139.535,67.938c0.394,0.121,0.786,0.203,1.181,0.24c0.393,0.034,0.787,0.055,1.181,0.055
		c0.983,0,1.932-0.135,2.841-0.408c0.911-0.27,1.767-0.657,2.565-1.161c0.8-0.504,1.514-1.119,2.141-1.847
		c0.627-0.726,1.139-1.53,1.532-2.418l7.38,7.418c-0.936,1.33-2.011,2.523-3.229,3.58c-1.217,1.062-2.534,1.957-3.949,2.695
		s-2.903,1.297-4.465,1.68c-1.563,0.383-3.168,0.572-4.816,0.572c-2.779,0-5.395-0.518-7.842-1.549
		c-2.449-1.033-4.59-2.477-6.423-4.318c-1.833-1.847-3.279-4.043-4.336-6.588c-1.059-2.547-1.587-5.345-1.587-8.396
		c0-3.124,0.528-5.979,1.587-8.562c1.057-2.584,2.503-4.785,4.336-6.605c1.833-1.821,3.974-3.237,6.423-4.246
		c2.447-1.008,5.063-1.512,7.842-1.512c1.648,0,3.261,0.198,4.835,0.591c1.574,0.394,3.069,0.959,4.484,1.697
		c1.415,0.738,2.737,1.643,3.967,2.714c1.23,1.07,2.313,2.268,3.248,3.598L139.535,67.938z M144.702,47.16
		c-0.468-0.173-0.93-0.283-1.385-0.334c-0.456-0.048-0.929-0.073-1.421-0.073c-1.378,0-2.676,0.251-3.894,0.756
		c-1.217,0.505-2.276,1.225-3.174,2.16c-0.898,0.935-1.605,2.06-2.122,3.376c-0.518,1.317-0.774,2.799-0.774,4.447
		c0,0.369,0.019,0.789,0.056,1.254c0.036,0.469,0.098,0.942,0.185,1.421c0.085,0.48,0.189,0.941,0.313,1.385
		c0.123,0.443,0.282,0.836,0.479,1.182L144.702,47.16z"/>
	<path fill="#0A4D83" d="M184.391,77.606h-23.029V67.565h23.029c0.688,0,1.279-0.244,1.772-0.737
		c0.491-0.491,0.737-1.082,0.737-1.772c0-0.711-0.246-1.18-0.737-1.4c-0.493-0.221-1.083-0.334-1.772-0.334h-10.48
		c-1.747,0-3.384-0.33-4.909-0.996c-1.525-0.664-2.854-1.566-3.985-2.713c-1.132-1.143-2.022-2.477-2.676-4.004
		c-0.652-1.523-0.979-3.161-0.979-4.908c0-1.746,0.326-3.383,0.979-4.908c0.652-1.526,1.544-2.854,2.676-3.985
		c1.131-1.132,2.46-2.025,3.985-2.677c1.525-0.653,3.162-0.979,4.909-0.979h20.409v10.041H173.91c-0.689,0-1.28,0.245-1.771,0.737
		c-0.493,0.492-0.738,1.083-0.738,1.771c0,0.715,0.246,1.324,0.738,1.827c0.492,0.504,1.083,0.757,1.771,0.757h10.48
		c1.722,0,3.346,0.288,4.872,0.867c1.524,0.578,2.854,1.384,3.986,2.416c1.131,1.034,2.029,2.278,2.694,3.728
		c0.664,1.452,0.997,3.039,0.997,4.759c0,1.75-0.333,3.379-0.997,4.891c-0.665,1.514-1.563,2.844-2.694,3.986
		c-1.131,1.146-2.461,2.045-3.986,2.696C187.737,77.28,186.113,77.606,184.391,77.606z"/>
	<path fill="#0A4D83" d="M220.962,77.606c-2.438,0-4.727-0.461-6.865-1.385c-2.141-0.923-4.018-2.189-5.628-3.8
		c-1.612-1.614-2.878-3.489-3.802-5.629c-0.923-2.142-1.383-4.431-1.383-6.864V48.193h-4.909v-10.04h4.909V22.357h10.038v15.795
		H228.6v10.041h-15.278v11.736c0,1.059,0.197,2.047,0.591,2.971c0.394,0.922,0.935,1.729,1.624,2.416
		c0.688,0.689,1.501,1.238,2.437,1.643c0.936,0.408,1.931,0.609,2.99,0.609h7.638v10.039H220.962L220.962,77.606z"/>
	<path fill="#0A4D83" d="M262.235,72.994c-0.812,0.737-1.68,1.433-2.601,2.085c-0.923,0.65-1.89,1.217-2.897,1.695
		c-1.009,0.479-2.048,0.863-3.117,1.145c-1.072,0.283-2.16,0.426-3.268,0.426c-2.437,0-4.725-0.433-6.865-1.293
		c-2.141-0.859-4.017-2.085-5.628-3.671c-1.612-1.587-2.879-3.521-3.802-5.794c-0.922-2.277-1.384-4.831-1.384-7.658v-21.85h10.04
		v21.852c0,1.326,0.202,2.514,0.608,3.559c0.407,1.049,0.953,1.928,1.644,2.641c0.688,0.715,1.495,1.254,2.418,1.625
		c0.921,0.368,1.913,0.553,2.971,0.553c1.034,0,2.012-0.238,2.934-0.719c0.924-0.48,1.729-1.115,2.418-1.9
		c0.688-0.787,1.229-1.681,1.624-2.676c0.393-0.998,0.591-2.023,0.591-3.08V38.079h10.075v39.527h-2.437L262.235,72.994z"/>
	<path fill="#0A4D83" d="M311.976,77.606h-2.437l-3.911-5.426c-0.959,0.862-1.976,1.668-3.044,2.418
		c-1.071,0.75-2.197,1.401-3.378,1.955c-1.182,0.555-2.394,0.992-3.636,1.313c-1.242,0.316-2.504,0.479-3.782,0.479
		c-2.781,0-5.396-0.523-7.843-1.568s-4.589-2.496-6.423-4.353c-1.833-1.858-3.277-4.062-4.336-6.608s-1.586-5.318-1.586-8.322
		c0-2.977,0.527-5.745,1.586-8.303c1.059-2.559,2.503-4.773,4.336-6.643c1.834-1.87,3.976-3.334,6.423-4.393
		c2.447-1.057,5.062-1.586,7.843-1.586c0.887,0,1.802,0.074,2.749,0.222c0.948,0.147,1.87,0.387,2.769,0.719
		c0.897,0.332,1.741,0.769,2.528,1.31c0.786,0.541,1.451,1.205,1.992,1.993V22.357h10.148L311.976,77.606L311.976,77.606z
		 M301.826,57.492c0-1.377-0.266-2.712-0.794-4.004s-1.25-2.435-2.16-3.432c-0.909-0.997-1.974-1.795-3.189-2.4
		c-1.218-0.602-2.516-0.903-3.895-0.903s-2.678,0.247-3.895,0.737c-1.218,0.494-2.275,1.2-3.173,2.123
		c-0.898,0.924-1.605,2.048-2.122,3.376c-0.518,1.328-0.775,2.831-0.775,4.503c0,1.452,0.259,2.831,0.775,4.133
		c0.517,1.304,1.224,2.448,2.122,3.431c0.896,0.986,1.955,1.762,3.173,2.326c1.217,0.566,2.516,0.852,3.895,0.852
		s2.677-0.303,3.895-0.905c1.217-0.603,2.28-1.401,3.189-2.397c0.91-1,1.632-2.143,2.16-3.435
		C301.562,60.205,301.826,58.87,301.826,57.492z"/>
	<path fill="#0A4D83" d="M328.005,27.339c0,0.936-0.18,1.809-0.536,2.621c-0.355,0.812-0.842,1.519-1.457,2.123
		c-0.614,0.603-1.336,1.083-2.159,1.438c-0.825,0.357-1.704,0.536-2.64,0.536s-1.813-0.179-2.638-0.536
		c-0.825-0.355-1.54-0.836-2.141-1.438c-0.604-0.604-1.084-1.311-1.44-2.123c-0.355-0.812-0.533-1.685-0.533-2.621
		c0-0.909,0.178-1.776,0.533-2.603c0.356-0.823,0.837-1.536,1.44-2.14c0.601-0.601,1.313-1.081,2.141-1.438
		c0.823-0.356,1.702-0.536,2.638-0.536s1.813,0.18,2.64,0.536c0.823,0.357,1.545,0.837,2.159,1.438
		c0.615,0.604,1.102,1.317,1.457,2.14C327.825,25.563,328.005,26.43,328.005,27.339z M326.271,77.606h-10.149V38.079h10.149V77.606z
		"/>
	<path fill="#0A4D83" d="M370.011,57.553c0,2.952-0.527,5.7-1.586,8.249c-1.059,2.547-2.497,4.75-4.317,6.607
		c-1.822,1.857-3.956,3.322-6.403,4.39c-2.447,1.071-5.073,1.606-7.88,1.606c-2.78,0-5.395-0.535-7.843-1.606
		c-2.447-1.067-4.589-2.532-6.421-4.39c-1.834-1.857-3.279-4.061-4.338-6.607c-1.057-2.548-1.586-5.296-1.586-8.249
		c0-3,0.529-5.782,1.586-8.34c1.059-2.559,2.504-4.766,4.338-6.625c1.832-1.857,3.974-3.316,6.421-4.374
		c2.448-1.058,5.063-1.586,7.843-1.586c2.807,0,5.433,0.498,7.88,1.495s4.581,2.41,6.403,4.244c1.82,1.833,3.26,4.035,4.317,6.607
		C369.483,51.544,370.011,54.405,370.011,57.553z M359.863,57.553c0-1.624-0.266-3.094-0.794-4.411
		c-0.53-1.314-1.249-2.447-2.159-3.393c-0.909-0.949-1.975-1.674-3.191-2.178c-1.217-0.504-2.516-0.757-3.895-0.757
		s-2.676,0.253-3.895,0.757c-1.217,0.503-2.275,1.229-3.173,2.178c-0.898,0.946-1.604,2.079-2.121,3.393
		c-0.518,1.317-0.775,2.788-0.775,4.411c0,1.527,0.259,2.94,0.775,4.245c0.517,1.303,1.223,2.436,2.121,3.395
		c0.896,0.959,1.956,1.718,3.173,2.271c1.219,0.552,2.516,0.83,3.895,0.83s2.678-0.259,3.895-0.774
		c1.218-0.518,2.282-1.244,3.191-2.177c0.91-0.937,1.629-2.067,2.159-3.397C359.598,60.617,359.863,59.153,359.863,57.553z"/>
	<path fill="#0A4D83" d="M394.115,77.606l-15.057-39.528h11.478l8.637,24.655l8.599-24.655h11.517l-15.059,39.528H394.115z"/>
	<path fill="#0A4D83" d="M457.147,77.606h-2.436l-3.911-5.426c-0.961,0.862-1.977,1.668-3.045,2.418
		c-1.07,0.75-2.196,1.401-3.378,1.955c-1.181,0.555-2.395,0.992-3.636,1.313c-1.243,0.316-2.505,0.479-3.782,0.479
		c-2.78,0-5.396-0.468-7.844-1.402c-2.447-0.936-4.589-2.293-6.42-4.076c-1.834-1.783-3.28-3.969-4.339-6.553
		c-1.059-2.582-1.586-5.521-1.586-8.819c0-3.075,0.527-5.899,1.586-8.47c1.059-2.571,2.505-4.78,4.339-6.625
		c1.831-1.845,3.973-3.279,6.42-4.3c2.448-1.021,5.063-1.531,7.844-1.531c1.277,0,2.547,0.159,3.801,0.481
		c1.255,0.319,2.474,0.762,3.654,1.328s2.307,1.229,3.377,1.992c1.069,0.764,2.071,1.587,3.009,2.473l3.911-4.688h2.436V77.606z
		 M446.997,57.492c0-1.377-0.264-2.712-0.793-4.004c-0.528-1.292-1.249-2.435-2.157-3.432c-0.91-0.997-1.976-1.795-3.193-2.4
		c-1.217-0.602-2.517-0.903-3.894-0.903c-1.379,0-2.677,0.233-3.895,0.7c-1.218,0.469-2.276,1.158-3.174,2.069
		c-0.899,0.91-1.605,2.036-2.123,3.376c-0.517,1.34-0.775,2.873-0.775,4.594c0,1.723,0.26,3.253,0.775,4.596
		c0.518,1.341,1.224,2.466,2.123,3.376c0.896,0.91,1.956,1.6,3.174,2.066c1.218,0.466,2.516,0.701,3.895,0.701
		c1.377,0,2.677-0.301,3.894-0.904c1.219-0.604,2.283-1.4,3.193-2.396c0.908-1,1.629-2.144,2.157-3.436
		C446.734,60.205,446.997,58.87,446.997,57.492z"/>
	<path fill="#0A4D83" d="M493.982,77.606h-32.956l16.646-29.414h-16.646v-10.04h32.956l-16.645,29.415h16.645V77.606z"/>
</g>
<g display="none">
	<path display="inline" fill="#882575" d="M316.291,95.543l1.021-0.612c0.719,1.323,1.548,1.984,2.489,1.984
		c0.401,0,0.78-0.096,1.134-0.281c0.354-0.188,0.624-0.439,0.81-0.756c0.185-0.314,0.276-0.648,0.276-1.004
		c0-0.402-0.136-0.798-0.408-1.184c-0.375-0.532-1.061-1.176-2.057-1.928c-1.001-0.756-1.624-1.302-1.869-1.64
		c-0.424-0.565-0.637-1.179-0.637-1.837c0-0.521,0.126-0.998,0.376-1.428s0.603-0.771,1.058-1.018
		c0.454-0.246,0.947-0.371,1.48-0.371c0.565,0,1.095,0.141,1.588,0.422c0.492,0.279,1.014,0.795,1.563,1.545l-0.979,0.744
		c-0.451-0.6-0.836-0.994-1.154-1.186c-0.317-0.189-0.665-0.285-1.04-0.285c-0.483,0-0.881,0.146-1.188,0.441
		c-0.309,0.293-0.461,0.654-0.461,1.086c0,0.261,0.054,0.514,0.161,0.759c0.109,0.243,0.309,0.511,0.597,0.8
		c0.158,0.15,0.675,0.553,1.551,1.199c1.04,0.768,1.752,1.449,2.139,2.049c0.388,0.6,0.579,1.2,0.579,1.805
		c0,0.869-0.33,1.627-0.992,2.27c-0.659,0.643-1.464,0.963-2.409,0.963c-0.729,0-1.392-0.193-1.984-0.584
		C317.34,97.108,316.793,96.458,316.291,95.543z"/>
	<path display="inline" fill="#882575" d="M326.868,85.774h6.88v1.174h-5.68v3.764h5.631v1.176h-5.631v4.717h5.631v1.176h-6.831
		V85.774L326.868,85.774z"/>
	<path display="inline" fill="#882575" d="M336.89,85.774h2.392c1.334,0,2.236,0.054,2.71,0.162
		c0.713,0.164,1.292,0.515,1.738,1.051c0.446,0.537,0.67,1.197,0.67,1.982c0,0.652-0.154,1.227-0.461,1.723
		c-0.308,0.496-0.748,0.871-1.319,1.125c-0.569,0.252-1.358,0.383-2.365,0.388l4.316,5.573h-1.483l-4.317-5.573h-0.679v5.573h-1.2
		L336.89,85.774L336.89,85.774z M338.09,86.948v4.082l2.067,0.016c0.803,0,1.395-0.076,1.778-0.229s0.685-0.396,0.898-0.73
		c0.216-0.334,0.322-0.708,0.322-1.122c0-0.401-0.108-0.769-0.327-1.097c-0.218-0.33-0.504-0.564-0.857-0.707
		c-0.354-0.143-0.942-0.213-1.766-0.213H338.09z"/>
	<path display="inline" fill="#882575" d="M347.059,85.774h1.306l3.979,9.274l4.044-9.274h1.306l-5.224,12.004h-0.261
		L347.059,85.774z"/>
	<path display="inline" fill="#882575" d="M360.54,85.774h1.199v12.004h-1.199V85.774z"/>
	<path display="inline" fill="#882575" d="M376.676,88.002l-0.946,0.728c-0.522-0.681-1.149-1.196-1.881-1.547
		c-0.732-0.353-1.537-0.527-2.412-0.527c-0.958,0-1.845,0.23-2.66,0.691c-0.815,0.459-1.449,1.075-1.897,1.852
		c-0.449,0.775-0.675,1.648-0.675,2.615c0,1.465,0.503,2.687,1.507,3.664c1.005,0.98,2.271,1.471,3.8,1.471
		c1.681,0,3.088-0.658,4.22-1.975l0.946,0.717c-0.6,0.762-1.346,1.351-2.239,1.768c-0.896,0.417-1.896,0.625-3,0.625
		c-2.101,0-3.757-0.7-4.971-2.098c-1.019-1.182-1.526-2.606-1.526-4.277c0-1.758,0.617-3.234,1.849-4.436
		c1.233-1.201,2.776-1.801,4.634-1.801c1.119,0,2.132,0.223,3.034,0.666C375.359,86.581,376.1,87.201,376.676,88.002z"/>
	<path display="inline" fill="#882575" d="M379.914,85.774h1.199v12.004h-1.199V85.774z"/>
	<path display="inline" fill="#882575" d="M390.586,85.472c1.816,0,3.34,0.607,4.563,1.819c1.227,1.214,1.838,2.707,1.838,4.481
		c0,1.758-0.61,3.248-1.834,4.473c-1.223,1.225-2.713,1.837-4.472,1.837c-1.779,0-3.283-0.61-4.508-1.828
		c-1.227-1.22-1.837-2.694-1.837-4.424c0-1.153,0.277-2.224,0.837-3.207c0.558-0.985,1.317-1.757,2.281-2.315
		C388.421,85.751,389.464,85.472,390.586,85.472z M390.639,86.64c-0.889,0-1.731,0.23-2.526,0.694
		c-0.796,0.462-1.417,1.086-1.864,1.869c-0.445,0.784-0.67,1.659-0.67,2.622c0,1.427,0.494,2.632,1.483,3.613
		c0.989,0.983,2.181,1.477,3.577,1.477c0.932,0,1.794-0.227,2.587-0.678c0.793-0.453,1.412-1.07,1.854-1.855
		c0.444-0.783,0.667-1.654,0.667-2.613c0-0.953-0.223-1.813-0.667-2.586c-0.442-0.771-1.068-1.387-1.876-1.849
		C392.398,86.87,391.541,86.64,390.639,86.64z"/>
	<path display="inline" fill="#882575" d="M408.449,97.778V85.774h0.262l7.989,9.201v-9.201h1.185v12.004h-0.27l-7.925-9.09v9.09
		H408.449z"/>
	<path display="inline" fill="#882575" d="M427.528,85.472c1.817,0,3.34,0.607,4.564,1.819c1.226,1.214,1.838,2.707,1.838,4.481
		c0,1.758-0.611,3.248-1.834,4.473s-2.713,1.837-4.473,1.837c-1.778,0-3.282-0.61-4.507-1.828c-1.226-1.22-1.838-2.694-1.838-4.424
		c0-1.153,0.279-2.224,0.837-3.207c0.559-0.985,1.319-1.757,2.282-2.315C425.363,85.751,426.406,85.472,427.528,85.472z
		 M427.58,86.64c-0.888,0-1.73,0.23-2.525,0.694c-0.796,0.462-1.417,1.086-1.864,1.869c-0.446,0.784-0.67,1.659-0.67,2.622
		c0,1.427,0.495,2.632,1.483,3.613c0.989,0.983,2.182,1.477,3.576,1.477c0.933,0,1.794-0.227,2.588-0.678
		c0.794-0.453,1.411-1.07,1.855-1.855c0.444-0.783,0.666-1.654,0.666-2.613c0-0.953-0.222-1.813-0.666-2.586
		c-0.444-0.771-1.07-1.387-1.877-1.849C429.342,86.87,428.485,86.64,427.58,86.64z"/>
	<path display="inline" fill="#882575" d="M436.15,86.948v-1.174h6.577v1.174h-2.677v10.83h-1.226v-10.83H436.15z"/>
	<path display="inline" fill="#882575" d="M450.365,85.774l5.6,12.004h-1.296l-1.89-3.949h-5.172l-1.87,3.949h-1.339l5.673-12.004
		H450.365z M450.214,88.323l-2.058,4.347h4.105L450.214,88.323z"/>
	<path display="inline" fill="#882575" d="M458.895,85.774h2.392c1.333,0,2.236,0.054,2.71,0.162
		c0.714,0.164,1.292,0.515,1.738,1.051c0.446,0.537,0.669,1.197,0.669,1.982c0,0.652-0.153,1.227-0.461,1.723
		s-0.747,0.871-1.317,1.125c-0.571,0.252-1.359,0.383-2.366,0.388l4.316,5.573h-1.483l-4.317-5.573h-0.679v5.573h-1.2
		L458.895,85.774L458.895,85.774z M460.095,86.948v4.082l2.066,0.016c0.803,0,1.396-0.076,1.779-0.229s0.684-0.396,0.898-0.73
		c0.216-0.334,0.321-0.708,0.321-1.122c0-0.401-0.107-0.769-0.325-1.097c-0.219-0.33-0.506-0.564-0.859-0.707
		c-0.354-0.143-0.941-0.213-1.765-0.213H460.095z"/>
	<path display="inline" fill="#882575" d="M469.807,85.774h1.199v12.004h-1.199V85.774z"/>
	<path display="inline" fill="#882575" d="M479.663,85.774l5.6,12.004h-1.296l-1.89-3.949h-5.172l-1.87,3.949h-1.339l5.673-12.004
		H479.663z M479.512,88.323l-2.058,4.347h4.105L479.512,88.323z"/>
	<path display="inline" fill="#882575" d="M488.127,85.774h1.197v10.847h4.62v1.157h-5.817V85.774z"/>
</g>
<g id="texto" display="none">
	
		<text transform="matrix(0.7 0 0 0.7 315.7014 97.8047)" display="inline" fill="#882575" font-family="'CenturyGothic-Bold'" font-size="23.9301" letter-spacing="1.429">servicio</text>
	
		<text transform="matrix(1 0 0 1 399.1135 97.8047)" display="inline" fill="#882575" font-family="'CenturyGothic-Bold'" font-size="23.9301" letter-spacing="1"> </text>
	
		<text transform="matrix(0.7 0 0 0.7 407.2444 97.8047)" display="inline" fill="#882575" font-family="'CenturyGothic-Bold'" font-size="23.9301" letter-spacing="1.429">notarial</text>
</g>
<g>
	<path fill="#882575" d="M323.39,89.409l-1.696,1.496c-0.596-0.828-1.202-1.243-1.819-1.243c-0.3,0-0.546,0.081-0.737,0.241
		c-0.191,0.161-0.286,0.343-0.286,0.544c0,0.202,0.067,0.393,0.204,0.573c0.187,0.239,0.746,0.755,1.68,1.546
		c0.874,0.73,1.404,1.191,1.59,1.382c0.464,0.469,0.793,0.918,0.987,1.346c0.193,0.428,0.291,0.896,0.291,1.402
		c0,0.987-0.342,1.803-1.023,2.446c-0.683,0.644-1.572,0.965-2.67,0.965c-0.856,0-1.604-0.21-2.239-0.63s-1.181-1.08-1.634-1.979
		l1.926-1.161c0.578,1.063,1.245,1.595,1.998,1.595c0.394,0,0.724-0.114,0.991-0.344c0.268-0.229,0.401-0.493,0.401-0.793
		c0-0.272-0.101-0.545-0.303-0.818c-0.202-0.272-0.647-0.689-1.335-1.251c-1.312-1.069-2.158-1.894-2.54-2.475
		c-0.383-0.58-0.574-1.16-0.574-1.738c0-0.834,0.318-1.55,0.954-2.146c0.636-0.598,1.421-0.896,2.354-0.896
		c0.601,0,1.173,0.139,1.716,0.417S322.756,88.673,323.39,89.409z"/>
	<path fill="#882575" d="M326.799,87.773h6.568v2.24h-4.294v2.176h4.294v2.2h-4.294v3.166h4.294v2.249h-6.568V87.773z"/>
	<path fill="#882575" d="M336.662,87.773h2.427c1.329,0,2.275,0.118,2.839,0.355s1.018,0.631,1.36,1.182s0.515,1.202,0.515,1.955
		c0,0.791-0.189,1.452-0.568,1.983s-0.95,0.934-1.713,1.206l2.85,5.35h-2.504l-2.705-5.096h-0.21v5.096h-2.29V87.773z
		 M338.952,92.477h0.718c0.729,0,1.23-0.096,1.505-0.288c0.274-0.191,0.411-0.509,0.411-0.951c0-0.263-0.067-0.491-0.203-0.686
		c-0.137-0.194-0.318-0.334-0.547-0.419c-0.229-0.084-0.646-0.127-1.256-0.127h-0.628V92.477z"/>
	<path fill="#882575" d="M346.318,87.773h2.354l3.027,8.547l3.071-8.547h2.352l-4.335,12.031h-2.208L346.318,87.773z"/>
	<path fill="#882575" d="M359.8,87.773h2.273v12.031H359.8V87.773z"/>
	<path fill="#882575" d="M376.714,89.888l-1.602,1.526c-1.09-1.151-2.315-1.728-3.678-1.728c-1.149,0-2.118,0.394-2.905,1.18
		s-1.181,1.755-1.181,2.906c0,0.803,0.174,1.515,0.522,2.137s0.842,1.111,1.479,1.466s1.346,0.532,2.125,0.532
		c0.664,0,1.271-0.124,1.822-0.373c0.55-0.248,1.154-0.699,1.814-1.354l1.553,1.62c-0.89,0.867-1.729,1.469-2.52,1.805
		c-0.791,0.335-1.693,0.503-2.707,0.503c-1.871,0-3.401-0.593-4.593-1.779c-1.191-1.186-1.787-2.706-1.787-4.56
		c0-1.199,0.271-2.266,0.813-3.198s1.319-1.682,2.331-2.249s2.101-0.851,3.268-0.851c0.992,0,1.948,0.209,2.867,0.629
		C375.257,88.519,376.048,89.114,376.714,89.888z"/>
	<path fill="#882575" d="M379.559,87.773h2.273v12.031h-2.273V87.773z"/>
	<path fill="#882575" d="M391.095,87.471c1.702,0,3.166,0.616,4.391,1.849c1.226,1.232,1.838,2.734,1.838,4.506
		c0,1.756-0.604,3.242-1.813,4.458c-1.208,1.216-2.675,1.824-4.398,1.824c-1.807,0-3.307-0.624-4.502-1.873
		s-1.792-2.732-1.792-4.449c0-1.15,0.278-2.209,0.835-3.174c0.556-0.965,1.321-1.73,2.295-2.294
		C388.922,87.753,389.971,87.471,391.095,87.471z M391.071,89.712c-1.114,0-2.05,0.387-2.809,1.161s-1.138,1.759-1.138,2.952
		c0,1.331,0.478,2.384,1.433,3.157c0.742,0.605,1.594,0.908,2.555,0.908c1.086,0,2.011-0.393,2.775-1.178
		c0.764-0.785,1.146-1.753,1.146-2.903c0-1.146-0.385-2.114-1.155-2.908C393.109,90.108,392.173,89.712,391.071,89.712z"/>
	<path fill="#882575" d="M408.626,87.773h2.197l5.148,7.917v-7.917h2.29v12.031h-2.203l-5.142-7.893v7.893h-2.291V87.773z"/>
	<path fill="#882575" d="M427.696,87.471c1.702,0,3.166,0.616,4.391,1.849c1.226,1.232,1.838,2.734,1.838,4.506
		c0,1.756-0.604,3.242-1.813,4.458c-1.208,1.216-2.675,1.824-4.398,1.824c-1.807,0-3.307-0.624-4.502-1.873
		s-1.792-2.732-1.792-4.449c0-1.15,0.278-2.209,0.835-3.174c0.556-0.965,1.321-1.73,2.295-2.294
		C425.523,87.753,426.572,87.471,427.696,87.471z M427.671,89.712c-1.114,0-2.05,0.387-2.809,1.161s-1.138,1.759-1.138,2.952
		c0,1.331,0.478,2.384,1.433,3.157c0.742,0.605,1.594,0.908,2.555,0.908c1.086,0,2.011-0.393,2.775-1.178
		c0.764-0.785,1.146-1.753,1.146-2.903c0-1.146-0.385-2.114-1.155-2.908C429.709,90.108,428.774,89.712,427.671,89.712z"/>
	<path fill="#882575" d="M435.903,87.773h6.649v2.257h-2.192v9.774h-2.322V90.03h-2.135V87.773z"/>
	<path fill="#882575" d="M448.798,87.773h2.322l4.628,12.031h-2.381l-0.941-2.479h-4.909l-0.979,2.479h-2.38L448.798,87.773z
		 M449.974,90.963l-1.614,4.131h3.219L449.974,90.963z"/>
	<path fill="#882575" d="M458.68,87.773h2.427c1.329,0,2.275,0.118,2.839,0.355s1.018,0.631,1.36,1.182s0.515,1.202,0.515,1.955
		c0,0.791-0.189,1.452-0.568,1.983s-0.95,0.934-1.713,1.206l2.85,5.35h-2.504l-2.705-5.096h-0.21v5.096h-2.29V87.773z
		 M460.97,92.477h0.718c0.729,0,1.23-0.096,1.505-0.288c0.274-0.191,0.411-0.509,0.411-0.951c0-0.263-0.067-0.491-0.203-0.686
		c-0.137-0.194-0.318-0.334-0.547-0.419c-0.229-0.084-0.646-0.127-1.256-0.127h-0.628V92.477z"/>
	<path fill="#882575" d="M469.083,87.773h2.273v12.031h-2.273V87.773z"/>
	<path fill="#882575" d="M478.609,87.773h2.322l4.628,12.031h-2.381l-0.941-2.479h-4.909l-0.979,2.479h-2.38L478.609,87.773z
		 M479.784,90.963l-1.614,4.131h3.219L479.784,90.963z"/>
	<path fill="#882575" d="M488.334,87.773h2.29v9.848h3.337v2.184h-5.627V87.773z"/>
</g>
</svg>
